<?xml version="1.0" encoding="UTF-8" standalone="no"?>
<!DOCTYPE svg PUBLIC "-//W3C//DTD SVG 1.1//EN"
 "http://www.w3.org/Graphics/SVG/1.1/DTD/svg11.dtd">
<!-- Generated by graphviz version 2.40.1 (20161225.0304)
 -->
<!-- Title: models_diagram Pages: 1 -->
<svg width="783pt" height="523pt"
 viewBox="0.00 0.00 783.32 523.00" xmlns="http://www.w3.org/2000/svg" xmlns:xlink="http://www.w3.org/1999/xlink">
<g id="graph0" class="graph" transform="scale(1 1) rotate(0) translate(4 519)">
<title>models_diagram</title>
<polygon fill="transparent" stroke="transparent" points="-4,4 -4,-519 779.3225,-519 779.3225,4 -4,4"/>
<!-- _diagram_info -->
<g id="node1" class="node">
<title>_diagram_info</title>
<text text-anchor="start" x="8" y="-486.6" font-family="Times,serif" font-size="13.00" fill="#000000">Models diagram</text>
<text text-anchor="start" x="8" y="-473.6" font-family="Times,serif" font-size="13.00" fill="#000000">Date: Sep 08 2017 &#45; 11:27</text>
<text text-anchor="start" x="8" y="-460.6" font-family="Times,serif" font-size="13.00" fill="#000000">Migration version: 20170908142326</text>
<text text-anchor="start" x="8" y="-447.6" font-family="Times,serif" font-size="13.00" fill="#000000">Generated by RailRoady 1.5.3</text>
<text text-anchor="start" x="8" y="-434.6" font-family="Times,serif" font-size="13.00" fill="#000000">http://railroady.prestonlee.com</text>
</g>
<!-- ApplicationRecord -->
<g id="node2" class="node">
<title>ApplicationRecord</title>
<ellipse fill="none" stroke="#000000" cx="302.6877" cy="-464.5" rx="77.2916" ry="18"/>
<text text-anchor="middle" x="302.6877" y="-460.3" font-family="Times,serif" font-size="14.00" fill="#000000">ApplicationRecord</text>
</g>
<!-- Catch -->
<g id="node3" class="node">
<title>Catch</title>
<path fill="none" stroke="#000000" d="M409.8254,-.5C409.8254,-.5 633.55,-.5 633.55,-.5 639.55,-.5 645.55,-6.5 645.55,-12.5 645.55,-12.5 645.55,-102.5 645.55,-102.5 645.55,-108.5 639.55,-114.5 633.55,-114.5 633.55,-114.5 409.8254,-114.5 409.8254,-114.5 403.8254,-114.5 397.8254,-108.5 397.8254,-102.5 397.8254,-102.5 397.8254,-12.5 397.8254,-12.5 397.8254,-6.5 403.8254,-.5 409.8254,-.5"/>
<text text-anchor="middle" x="521.6877" y="-99.3" font-family="Times,serif" font-size="14.00" fill="#000000">Catch</text>
<polyline fill="none" stroke="#000000" points="397.8254,-92.5 645.55,-92.5 "/>
<text text-anchor="start" x="405.8254" y="-77.3" font-family="Times,serif" font-size="14.00" fill="#000000">id :integer</text>
<text text-anchor="start" x="405.8254" y="-63.3" font-family="Times,serif" font-size="14.00" fill="#000000">user_id :integer</text>
<text text-anchor="start" x="405.8254" y="-49.3" font-family="Times,serif" font-size="14.00" fill="#000000">pokemon_id :integer</text>
<text text-anchor="start" x="405.8254" y="-35.3" font-family="Times,serif" font-size="14.00" fill="#000000">level :integer</text>
<text text-anchor="start" x="405.8254" y="-21.3" font-family="Times,serif" font-size="14.00" fill="#000000">created_at :timestamp without time zone</text>
<text text-anchor="start" x="405.8254" y="-7.3" font-family="Times,serif" font-size="14.00" fill="#000000">updated_at :timestamp without time zone</text>
</g>
<!-- Pokemon -->
<g id="node4" class="node">
<title>Pokemon</title>
<path fill="none" stroke="#000000" d="M409.8254,-414.5C409.8254,-414.5 633.55,-414.5 633.55,-414.5 639.55,-414.5 645.55,-420.5 645.55,-426.5 645.55,-426.5 645.55,-502.5 645.55,-502.5 645.55,-508.5 639.55,-514.5 633.55,-514.5 633.55,-514.5 409.8254,-514.5 409.8254,-514.5 403.8254,-514.5 397.8254,-508.5 397.8254,-502.5 397.8254,-502.5 397.8254,-426.5 397.8254,-426.5 397.8254,-420.5 403.8254,-414.5 409.8254,-414.5"/>
<text text-anchor="middle" x="521.6877" y="-499.3" font-family="Times,serif" font-size="14.00" fill="#000000">Pokemon</text>
<polyline fill="none" stroke="#000000" points="397.8254,-492.5 645.55,-492.5 "/>
<text text-anchor="start" x="405.8254" y="-477.3" font-family="Times,serif" font-size="14.00" fill="#000000">id :integer</text>
<text text-anchor="start" x="405.8254" y="-463.3" font-family="Times,serif" font-size="14.00" fill="#000000">name :character varying</text>
<text text-anchor="start" x="405.8254" y="-449.3" font-family="Times,serif" font-size="14.00" fill="#000000">description :text</text>
<text text-anchor="start" x="405.8254" y="-435.3" font-family="Times,serif" font-size="14.00" fill="#000000">created_at :timestamp without time zone</text>
<text text-anchor="start" x="405.8254" y="-421.3" font-family="Times,serif" font-size="14.00" fill="#000000">updated_at :timestamp without time zone</text>
</g>
<!-- Pokemon&#45;&gt;Catch -->
<g id="edge1" class="edge">
<title>Pokemon&#45;&gt;Catch</title>
<path fill="none" stroke="#22487e" d="M462.8399,-407.4646C456.2587,-398.263 450.546,-388.3395 446.6877,-378 411.4159,-283.4777 413.2308,-246.1798 446.6877,-151 450.087,-141.3297 454.9548,-131.9191 460.6003,-123.0264"/>
<ellipse fill="none" stroke="#22487e" cx="465.3698" cy="-410.834" rx="4" ry="4"/>
<polygon fill="#22487e" stroke="#22487e" points="460.6433,-122.9623 469.9613,-117.1808 463.436,-118.8149 466.2286,-114.6674 466.2286,-114.6674 466.2286,-114.6674 463.436,-118.8149 462.4959,-112.154 460.6433,-122.9623 460.6433,-122.9623"/>
</g>
<!-- User -->
<g id="node5" class="node">
<title>User</title>
<path fill="none" stroke="#000000" d="M468.053,-151.5C468.053,-151.5 763.3225,-151.5 763.3225,-151.5 769.3225,-151.5 775.3225,-157.5 775.3225,-163.5 775.3225,-163.5 775.3225,-365.5 775.3225,-365.5 775.3225,-371.5 769.3225,-377.5 763.3225,-377.5 763.3225,-377.5 468.053,-377.5 468.053,-377.5 462.053,-377.5 456.053,-371.5 456.053,-365.5 456.053,-365.5 456.053,-163.5 456.053,-163.5 456.053,-157.5 462.053,-151.5 468.053,-151.5"/>
<text text-anchor="middle" x="615.6877" y="-362.3" font-family="Times,serif" font-size="14.00" fill="#000000">User</text>
<polyline fill="none" stroke="#000000" points="456.053,-355.5 775.3225,-355.5 "/>
<text text-anchor="start" x="464.053" y="-340.3" font-family="Times,serif" font-size="14.00" fill="#000000">role :integer</text>
<text text-anchor="start" x="464.053" y="-326.3" font-family="Times,serif" font-size="14.00" fill="#000000">email :character varying</text>
<text text-anchor="start" x="464.053" y="-312.3" font-family="Times,serif" font-size="14.00" fill="#000000">encrypted_password :character varying</text>
<text text-anchor="start" x="464.053" y="-298.3" font-family="Times,serif" font-size="14.00" fill="#000000">reset_password_token :character varying</text>
<text text-anchor="start" x="464.053" y="-284.3" font-family="Times,serif" font-size="14.00" fill="#000000">reset_password_sent_at :timestamp without time zone</text>
<text text-anchor="start" x="464.053" y="-270.3" font-family="Times,serif" font-size="14.00" fill="#000000">remember_created_at :timestamp without time zone</text>
<text text-anchor="start" x="464.053" y="-256.3" font-family="Times,serif" font-size="14.00" fill="#000000">sign_in_count :integer</text>
<text text-anchor="start" x="464.053" y="-242.3" font-family="Times,serif" font-size="14.00" fill="#000000">current_sign_in_at :timestamp without time zone</text>
<text text-anchor="start" x="464.053" y="-228.3" font-family="Times,serif" font-size="14.00" fill="#000000">last_sign_in_at :timestamp without time zone</text>
<text text-anchor="start" x="464.053" y="-214.3" font-family="Times,serif" font-size="14.00" fill="#000000">current_sign_in_ip :inet</text>
<text text-anchor="start" x="464.053" y="-200.3" font-family="Times,serif" font-size="14.00" fill="#000000">last_sign_in_ip :inet</text>
<text text-anchor="start" x="464.053" y="-186.3" font-family="Times,serif" font-size="14.00" fill="#000000">created_at :timestamp without time zone</text>
<text text-anchor="start" x="464.053" y="-172.3" font-family="Times,serif" font-size="14.00" fill="#000000">updated_at :timestamp without time zone</text>
<text text-anchor="start" x="464.053" y="-158.3" font-family="Times,serif" font-size="14.00" fill="#000000">id :integer</text>
</g>
<!-- Pokemon&#45;&gt;User -->
<g id="edge2" class="edge">
<title>Pokemon&#45;&gt;User</title>
<path fill="none" stroke="#5ed9cc" d="M549.6402,-405.0267C552.3972,-399.1608 555.2594,-393.0709 558.1787,-386.8598"/>
<polygon fill="#5ed9cc" stroke="#5ed9cc" points="549.5402,-405.2395 541.214,-412.3756 547.4134,-409.7646 545.2866,-414.2897 545.2866,-414.2897 545.2866,-414.2897 547.4134,-409.7646 549.3592,-416.2039 549.5402,-405.2395 549.5402,-405.2395"/>
<polygon fill="#5ed9cc" stroke="#5ed9cc" points="558.2372,-386.7351 566.5635,-379.599 560.364,-382.21 562.4909,-377.6848 562.4909,-377.6848 562.4909,-377.6848 560.364,-382.21 558.4183,-375.7707 558.2372,-386.7351 558.2372,-386.7351"/>
</g>
<!-- User&#45;&gt;Catch -->
<g id="edge3" class="edge">
<title>User&#45;&gt;Catch</title>
<path fill="none" stroke="#4065ac" d="M560.9346,-143.9266C557.8553,-137.1455 554.8215,-130.4649 551.8884,-124.0056"/>
<ellipse fill="none" stroke="#4065ac" cx="562.6333" cy="-147.6674" rx="4" ry="4"/>
<polygon fill="#4065ac" stroke="#4065ac" points="551.804,-123.8197 551.7665,-112.8539 549.7366,-119.2671 547.6692,-114.7145 547.6692,-114.7145 547.6692,-114.7145 549.7366,-119.2671 543.5719,-116.5752 551.804,-123.8197 551.804,-123.8197"/>
</g>
</g>
</svg>
