<?xml version="1.0" encoding="UTF-8" standalone="no"?>
<!DOCTYPE svg PUBLIC "-//W3C//DTD SVG 1.1//EN"
 "http://www.w3.org/Graphics/SVG/1.1/DTD/svg11.dtd">
<!-- Generated by graphviz version 2.40.1 (20161225.0304)
 -->
<!-- Title: models_diagram Pages: 1 -->
<svg width="504pt" height="225pt"
 viewBox="0.00 0.00 503.69 225.00" xmlns="http://www.w3.org/2000/svg" xmlns:xlink="http://www.w3.org/1999/xlink">
<g id="graph0" class="graph" transform="scale(1 1) rotate(0) translate(4 221)">
<title>models_diagram</title>
<polygon fill="transparent" stroke="transparent" points="-4,4 -4,-221 499.6877,-221 499.6877,4 -4,4"/>
<!-- _diagram_info -->
<g id="node1" class="node">
<title>_diagram_info</title>
<text text-anchor="start" x="8" y="-202.6" font-family="Times,serif" font-size="13.00" fill="#000000">Models diagram</text>
<text text-anchor="start" x="8" y="-189.6" font-family="Times,serif" font-size="13.00" fill="#000000">Date: Sep 08 2017 &#45; 11:27</text>
<text text-anchor="start" x="8" y="-176.6" font-family="Times,serif" font-size="13.00" fill="#000000">Migration version: 20170908142326</text>
<text text-anchor="start" x="8" y="-163.6" font-family="Times,serif" font-size="13.00" fill="#000000">Generated by RailRoady 1.5.3</text>
<text text-anchor="start" x="8" y="-150.6" font-family="Times,serif" font-size="13.00" fill="#000000">http://railroady.prestonlee.com</text>
</g>
<!-- ApplicationRecord -->
<g id="node2" class="node">
<title>ApplicationRecord</title>
<ellipse fill="none" stroke="#000000" cx="302.6877" cy="-180.5" rx="77.2916" ry="18"/>
<text text-anchor="middle" x="302.6877" y="-176.3" font-family="Times,serif" font-size="14.00" fill="#000000">ApplicationRecord</text>
</g>
<!-- Catch -->
<g id="node3" class="node">
<title>Catch</title>
<ellipse fill="none" stroke="#000000" cx="440.6877" cy="-18" rx="30.9706" ry="18"/>
<text text-anchor="middle" x="440.6877" y="-13.8" font-family="Times,serif" font-size="14.00" fill="#000000">Catch</text>
</g>
<!-- Pokemon -->
<g id="node4" class="node">
<title>Pokemon</title>
<ellipse fill="none" stroke="#000000" cx="441.6877" cy="-180.5" rx="43.5319" ry="18"/>
<text text-anchor="middle" x="441.6877" y="-176.3" font-family="Times,serif" font-size="14.00" fill="#000000">Pokemon</text>
</g>
<!-- Pokemon&#45;&gt;Catch -->
<g id="edge1" class="edge">
<title>Pokemon&#45;&gt;Catch</title>
<path fill="none" stroke="#b7943e" d="M437.2133,-154.2874C434.0157,-132.3189 430.6158,-100.1239 432.6877,-72 433.3144,-63.4935 434.4893,-54.2939 435.7493,-45.9399"/>
<ellipse fill="none" stroke="#b7943e" cx="437.8583" cy="-158.5078" rx="4" ry="4"/>
<polygon fill="#b7943e" stroke="#b7943e" points="435.7717,-45.8 441.7994,-36.6394 436.564,-40.8632 437.3562,-35.9264 437.3562,-35.9264 437.3562,-35.9264 436.564,-40.8632 432.9131,-35.2133 435.7717,-45.8 435.7717,-45.8"/>
</g>
<!-- User -->
<g id="node5" class="node">
<title>User</title>
<ellipse fill="none" stroke="#000000" cx="468.6877" cy="-90" rx="27" ry="18"/>
<text text-anchor="middle" x="468.6877" y="-85.8" font-family="Times,serif" font-size="14.00" fill="#000000">User</text>
</g>
<!-- Pokemon&#45;&gt;User -->
<g id="edge2" class="edge">
<title>Pokemon&#45;&gt;User</title>
<path fill="none" stroke="#f7e043" d="M449.8826,-153.032C453.2337,-141.7996 457.1034,-128.8288 460.4581,-117.5845"/>
<polygon fill="#f7e043" stroke="#f7e043" points="449.8811,-153.0375 442.7099,-161.3336 448.4516,-157.8288 447.0221,-162.6201 447.0221,-162.6201 447.0221,-162.6201 448.4516,-157.8288 451.3343,-163.9067 449.8811,-153.0375 449.8811,-153.0375"/>
<polygon fill="#f7e043" stroke="#f7e043" points="460.5055,-117.4254 467.6767,-109.1293 461.935,-112.6341 463.3645,-107.8427 463.3645,-107.8427 463.3645,-107.8427 461.935,-112.6341 459.0523,-106.5562 460.5055,-117.4254 460.5055,-117.4254"/>
</g>
<!-- User&#45;&gt;Catch -->
<g id="edge3" class="edge">
<title>User&#45;&gt;Catch</title>
<path fill="none" stroke="#895b9d" d="M458.9068,-64.8489C456.4591,-58.5549 453.8216,-51.7729 451.3343,-45.3767"/>
<ellipse fill="none" stroke="#895b9d" cx="460.4599" cy="-68.8428" rx="4" ry="4"/>
<polygon fill="#895b9d" stroke="#895b9d" points="451.2224,-45.0889 451.7919,-34.1378 449.4101,-40.4289 447.5979,-35.7689 447.5979,-35.7689 447.5979,-35.7689 449.4101,-40.4289 443.4038,-37.3999 451.2224,-45.0889 451.2224,-45.0889"/>
</g>
</g>
</svg>
